<svg width="31" height="31" viewBox="0 0 31 31" fill="none" xmlns="http://www.w3.org/2000/svg">
<path fill-rule="evenodd" clip-rule="evenodd" d="M15.0586 31C23.3755 31 30.1177 24.2578 30.1177 15.9409C30.1177 13.9424 29.7285 12.0352 29.0215 10.29L16.3882 22.9233C15.6528 23.6587 14.4585 23.6587 13.7236 22.9233L6.19385 15.394C5.4585 14.6587 5.4585 13.4648 6.19385 12.7295C6.9292 11.9941 8.12354 11.9941 8.85889 12.7295L15.0586 18.9233L27.0962 6.8916C24.3481 3.24219 19.979 0.882324 15.0586 0.882324C6.74219 0.882324 0 7.62451 0 15.9409C0 24.2578 6.74219 31 15.0586 31Z" fill="#FF564F"/>
</svg>
